<?xml version="1.0" encoding="utf-8"?>
<!-- Generator: Adobe Illustrator 27.3.1, SVG Export Plug-In . SVG Version: 6.00 Build 0)  -->
<svg version="1.1" id="Layer_1" xmlns="http://www.w3.org/2000/svg" xmlns:xlink="http://www.w3.org/1999/xlink" x="0px" y="0px"
	 viewBox="0 0 500 500" style="enable-background:new 0 0 500 500;" xml:space="preserve">
<style type="text/css">
	.st0{fill:#EC8B41;}
	.st1{fill:#B16831;}
	.st2{fill:#FFD5A3;}
	.st3{fill:#FFFFFF;}
	.st4{fill:#3C3C3B;}
</style>
<g>
	<path class="st0" d="M476.77,458.28c0,14.27-11.57,25.84-25.84,25.84H49.16c-14.26,0-25.84-11.56-25.84-25.84V41.02
		c0-14.27,11.57-25.84,25.84-25.84h401.77c14.27,0,25.84,11.57,25.84,25.84V458.28z"/>
	<path class="st1" d="M317.28,342.96c0-0.06,0-0.11,0-0.17l10.8-0.02l-0.01-27.98l-11.25,0.01c-0.06-8.79,0.03-16.21,0.47-16.8
		c1.12-1.5,10-0.15,15.21-11.74c2.12-4.7,2.82-16.54,3.02-26.89h0.05v-3.99c0.01-1.9,0.01-3.69,0-5.33l0.01-29.75
		c0.1-0.36,0.17-0.73,0.17-1.1l-0.05-39.64c0-4.16-6.54-7.53-14.6-7.52c-8.05,0.01-14.59,3.39-14.59,7.55l0.01,6.33h-3.44
		l-0.01-13.73c0-4.54-7.43-8.21-16.59-8.2c-9.17,0.01-16.59,3.7-16.57,8.24l0.01,13.69h-3.35l3.32-92.59
		c0.38-10.98-5.84-20.11-13.93-20.4c-8.09-0.29-14.95,8.38-15.34,19.36l-3.35,93.63h-7l-9.08-89.02c-1-9.84-8.66-17.11-17.07-16.24
		c-8.43,0.86-14.44,9.53-13.43,19.34l9.53,93.51c0.06,0.57,0.14,1.14,0.25,1.68c-6.24,12.32-16.09,35.18-16.09,35.18
		s1.89,33.34,4.4,43.07c5.28,20.39,21.96,27.09,21.96,27.09l-0.1,14.42l-8,0.01l0.02,27.98l7.78-0.01v0.01h-7.78h-14.03v141.16
		h154.53V342.96H317.28z"/>
	<path class="st2" d="M212.47,190.42c1,9.82-5.01,18.5-13.43,19.35l0,0c-8.43,0.86-16.07-6.4-17.07-16.24l-9.53-93.51
		c-1.01-9.81,5-18.48,13.43-19.34l0,0c8.41-0.87,16.07,6.4,17.07,16.24L212.47,190.42z"/>
	<path class="st2" d="M247.9,197.76c-0.39,10.97-7.26,19.63-15.34,19.35l0,0c-8.09-0.29-14.31-9.43-13.93-20.39l3.74-104.42
		c0.39-10.98,7.25-19.64,15.34-19.36l0,0c8.08,0.29,14.31,9.42,13.92,20.4L247.9,197.76z"/>
	<path class="st2" d="M284.86,215.39c0,4.54-7.41,8.23-16.58,8.24l0,0c-9.16,0.01-16.59-3.67-16.59-8.21l-0.05-43.19
		c-0.01-4.54,7.41-8.23,16.55-8.24l0,0c9.17-0.01,16.6,3.66,16.6,8.2L284.86,215.39z"/>
	<path class="st2" d="M317.49,219.2c0.01,4.16-6.52,7.55-14.59,7.55l0,0c-8.07,0.01-14.6-3.36-14.6-7.52l-0.05-39.64
		c0-4.16,6.53-7.55,14.58-7.55l0,0c8.07-0.02,14.61,3.35,14.61,7.52L317.49,219.2z"/>
	<polygon class="st2" points="182.84,185.93 182.75,257.59 317.3,259.37 317.34,185.93 	"/>
	<path class="st2" d="M317.16,241.26c0,0,1.19,35.89-2.91,45c-5.21,11.59-14.09,10.24-15.22,11.74c-1.13,1.5,0.06,47.51,0.06,47.51
		l-106.93,2.82l0.33-47.79c0,0-16.68-6.7-21.95-27.09c-2.51-9.73-4.41-43.07-4.41-43.07s18.14-42.09,20.77-42.84l-3.12,60.42
		l58.4-8.31L317.16,241.26z"/>
	<g>
		<polygon class="st3" points="309.82,342.77 309.81,314.79 184.38,314.98 184.4,342.96 		"/>
		<rect x="170.38" y="342.96" class="st4" width="154.52" height="141.16"/>
	</g>
</g>
</svg>
