<?xml version="1.0" encoding="utf-8"?>
<!-- Generator: Adobe Illustrator 27.3.1, SVG Export Plug-In . SVG Version: 6.00 Build 0)  -->
<svg version="1.1" id="Layer_1" xmlns="http://www.w3.org/2000/svg" xmlns:xlink="http://www.w3.org/1999/xlink" x="0px" y="0px"
	 viewBox="0 0 500 500" style="enable-background:new 0 0 500 500;" xml:space="preserve">
<style type="text/css">
	.st0{fill:#00A19A;}
	.st1{fill:#007974;}
	.st2{fill:#FFD5A3;}
	.st3{fill:#FFFFFF;}
	.st4{fill:#3C3C3B;}
</style>
<g>
	<path class="st0" d="M476.77,458.3c0,14.27-11.56,25.84-25.83,25.84H49.16c-14.27,0-25.84-11.57-25.84-25.84V41.02
		c0-14.28,11.57-25.84,25.84-25.84h401.78c14.27,0,25.83,11.56,25.83,25.84V458.3z"/>
	<path class="st1" d="M304.47,321.14c0-0.06,0-0.11,0-0.17l9.96-0.02l-0.01-27.99l-10.4,0.02c-0.07-9,0.02-16.67,0.47-17.26
		c1.12-1.5,13.17-2.06,18.38-13.65c4.1-9.1,3.13-43.03,3.13-43.03h-0.02l0.02-55.4h-0.06l-0.08-61.45
		c-0.01-9.04-6.06-16.34-13.52-16.33c-7.45,0-13.49,7.33-13.48,16.36l0.07,61.42h-7.73l-0.1-84.19
		c-0.01-10.41-6.38-18.82-14.24-18.82c-7.85,0.01-14.2,8.45-14.18,18.84l0.1,84.17h-7.31l-0.1-96.4
		c-0.03-10.98-6.58-19.88-14.67-19.87c-8.09,0.01-14.63,8.92-14.62,19.9l0.1,96.37h-7.22l-0.1-84.64
		c-0.01-10.44-6.89-18.89-15.35-18.87c-8.47,0.01-15.32,8.48-15.31,18.91l0.1,84.98l-0.06,44.36c-5.15-13.71-13.78-36.76-18-48.29
		c-2.47-6.75-7.63-11.57-16.77-9.16c-9.13,2.39-15.46,8.49-13.78,14.85c1.64,6.19,5.71,22.5,9.72,38.7l0,0
		c4.59,20.5,7.46,36.62,12.56,56.35c5.27,20.4,35.96,17.44,35.96,17.44l-0.11,14.89l-8.83,0.01l0.02,27.98l8.62-0.01v0.01H189
		h-14.02v162.99H329.5V321.14H304.47z"/>
	<path class="st2" d="M208.98,181.75c0.01,10.43-6.84,18.9-15.31,18.91l0,0c-8.48,0.01-15.35-8.44-15.36-18.88l-0.11-99.26
		c-0.02-10.42,6.83-18.89,15.31-18.9l0,0c8.46-0.01,15.35,8.43,15.35,18.88L208.98,181.75z"/>
	<path class="st2" d="M245.48,175.21c0.01,10.97-6.54,19.9-14.62,19.9l0,0c-8.1,0.01-14.66-8.9-14.67-19.87l-0.11-104.48
		c-0.02-10.99,6.52-19.89,14.61-19.9l0,0c8.09-0.01,14.65,8.89,14.66,19.87L245.48,175.21z"/>
	<path class="st2" d="M281.22,181.88c0.01,10.4-6.34,18.84-14.19,18.85l0,0c-7.85,0.01-14.22-8.42-14.23-18.82l-0.11-98.95
		c-0.02-10.39,6.33-18.84,14.18-18.85l0,0c7.86,0,14.23,8.42,14.24,18.82L281.22,181.88z"/>
	<path class="st2" d="M315.97,191.58c0.02,9.03-6.02,16.36-13.49,16.36l0,0c-7.46,0.02-13.51-7.3-13.51-16.32l-0.1-85.91
		c-0.01-9.02,6.02-16.36,13.48-16.35l0,0c7.46-0.02,13.51,7.29,13.52,16.32L315.97,191.58z"/>
	<path class="st2" d="M182.38,222.85c1.52,5.8-3.99,13.66-13.13,16.06l-5.74-8.27c-9.13,2.41-14.22,17.42-14.22,17.42
		s-15.91-64.92-19.59-78.81c-1.68-6.35,4.64-12.46,13.78-14.85l0,0c9.14-2.4,14.3,2.41,16.77,9.16
		C166.47,180.61,182.38,222.85,182.38,222.85z"/>
	<polygon class="st2" points="178.3,167.12 178.21,238.78 315.97,240.56 316,167.12 	"/>
	<path class="st2" d="M316,222.52c0,0,0.97,33.92-3.14,43.02c-5.21,11.59-17.26,12.16-18.38,13.65c-1.13,1.51,0.05,47.51,0.05,47.51
		l-106.93,2.83l0.33-47.8c0,0-30.68,2.96-35.96-17.44c-5.1-19.73-7.97-35.85-12.56-56.35l39.81,21.23l58.4-8.31L316,222.52z"/>
	<g>
		<polygon class="st3" points="304.43,324.43 304.42,296.44 179,296.63 179.01,324.61 		"/>
		<rect x="164.99" y="324.61" class="st4" width="154.52" height="159.52"/>
	</g>
</g>
</svg>
