<?xml version="1.0" encoding="utf-8"?>
<!-- Generator: Adobe Illustrator 27.3.1, SVG Export Plug-In . SVG Version: 6.00 Build 0)  -->
<svg version="1.1" id="Layer_1" xmlns="http://www.w3.org/2000/svg" xmlns:xlink="http://www.w3.org/1999/xlink" x="0px" y="0px"
	 viewBox="0 0 500 500" style="enable-background:new 0 0 500 500;" xml:space="preserve">
<style type="text/css">
	.st0{fill:#6D496D;}
	.st1{fill:#523752;}
	.st2{fill:#FFD5A3;}
	.st3{fill:#FFFFFF;}
	.st4{fill:#3C3C3B;}
</style>
<g>
	<path class="st0" d="M476.77,458.28c0,14.27-11.57,25.83-25.84,25.83H49.16c-14.27,0-25.84-11.56-25.84-25.83V41.02
		c0-14.27,11.57-25.84,25.84-25.84h401.77c14.27,0,25.84,11.56,25.84,25.84V458.28z"/>
	<path class="st1" d="M316.14,292.67v-0.17l11.24-0.01l-0.02-28.36l-11.08,0.02l0.12-20.46c0,0,11.54,0.94,16.75-10.81
		c2.12-4.76,2.82-16.75,3.02-27.25h0.05v-4.05c0.01-1.92,0.01-3.74,0-5.4l0.01-30.14c0.1-0.37,0.18-0.74,0.18-1.12l-0.05-40.16
		c0-4.22-6.54-7.64-14.61-7.62c-8.05,0.01-14.59,3.44-14.58,7.66l0.01,6.44h-2.04l-0.01-15.39c-0.01-6.47-7.53-11.69-16.82-11.68
		c-9.26,0.01-16.78,5.26-16.76,11.72l0.01,15.34h-2.64l-0.02-17.12c0-6.47-7.52-11.7-16.82-11.69c-9.27,0.01-16.77,5.26-16.76,11.72
		l0.02,17.09h-2.66l-0.02-15.38c-0.01-6.47-6.96-11.69-15.51-11.68c-8.55,0.01-15.49,5.26-15.47,11.72l0.03,37.54
		c-6.86,7.71-21.55,27.43-21.55,27.43s3.95,35,6.45,44.86c5.28,20.67,28.64,21.69,28.64,21.69l0.16,16.92l-13.47,0.02l0.02,28.35
		l13.7-0.02v0.02h-13.7h-14.03v191.16l154.52,0.28V292.67H316.14z"/>
	<path class="st2" d="M283.7,181.93c0,6.38-7.51,11.56-16.78,11.57l0,0c-9.28,0.01-16.8-5.16-16.8-11.53l-0.08-60.69
		c-0.01-6.37,7.5-11.56,16.77-11.57l0,0c9.29,0,16.81,5.15,16.81,11.54L283.7,181.93z"/>
	<path class="st2" d="M247.48,180.2c0,6.38-7.51,11.56-16.78,11.57l0,0c-9.29,0.01-16.8-5.15-16.8-11.53l-0.08-60.69
		c-0.01-6.37,7.5-11.55,16.77-11.56l0,0c9.28,0,16.81,5.15,16.81,11.54L247.48,180.2z"/>
	<path class="st2" d="M211.23,181.93c0,6.38-6.93,11.55-15.49,11.57l0,0c-8.56,0-15.51-5.16-15.51-11.54l-0.08-60.69
		c-0.01-6.37,6.92-11.56,15.47-11.56l0,0c8.58-0.01,15.52,5.14,15.52,11.53L211.23,181.93z"/>
	<path class="st2" d="M314.9,169.68c0.01,4.16-6.52,7.55-14.58,7.56l0,0c-8.06,0.01-14.6-3.36-14.6-7.53l-0.05-39.63
		c0-4.17,6.53-7.55,14.58-7.55l0,0c8.06-0.01,14.61,3.36,14.61,7.52L314.9,169.68z"/>
	<polygon class="st2" points="180.26,136.42 180.16,208.08 314.72,209.86 314.75,136.42 	"/>
	<path class="st2" d="M314.57,191.75c0,0,1.19,35.9-2.92,45c-5.21,11.6-16.75,10.67-16.75,10.67l-0.26,48.34l-100.44,3.07
		l-0.44-47.77c0,0-23.37-1-28.65-21.4c-2.52-9.72-6.44-44.27-6.44-44.27s22.11-29.3,24.74-30.05l-2.23,43.13l58.4-8.31
		L314.57,191.75z"/>
	<g>
		<polygon class="st3" points="305.87,295.57 305.86,267.58 180.43,267.77 180.46,295.75 		"/>
		<rect x="166.43" y="295.75" class="st4" width="154.53" height="188.08"/>
	</g>
</g>
</svg>
